# xmcd
#
# Track frame offsets:
#	150
#	17930
#	32244
#	45910
#	62937
#	84885
#	98760
#	116250
#	133015
#	149102
#	163652
#	182977
#	198190
#	213592
#	232125
#	246352
#
# Disc length: 3465 seconds
#
# Revision: 1
# Processed by: cddbd v1.4PL0 Copyright (c) Steve Scherf et al.
# Submitted via: audiograbber 1.81.03
#
DISCID=e80d8710
DTITLE=Various Artist - Hott Country 1
DYEAR=1900
DGENRE=Country
TTITLE0=Bryan White - Rebecca Lynn
TTITLE1=Doug Supernaw - Not Enough Hours In The Night
TTITLE2=Terri Clark - When Boy Meets Girl
TTITLE3=Susan Aglukark - Breakin' Down
TTITLE4=Wynonna - To Be Loved By You
TTITLE5=Tracy Lawrence - If The World Had A Front Porch
TTITLE6=Alan Jackson - I'll Try
TTITLE7=LittleTexas - Country Crazy
TTITLE8=Chely Wright - Listen To The Radio
TTITLE9=Confederate Railroad - When He Was My Age
TTITLE10=Kenny Chesney - Grandpa Told Me So
TTITLE11=Tracy Byrd - Heaven In My Woman's Eyes
TTITLE12=Patty Loveless - You Can Fell Bad
TTITLE13=Charlie Major - Tell Me Something I Don't Know
TTITLE14=Mark Chestnutt - It Wouldn't Hurt To Have Wings
TTITLE15=Lorrie Morgan - Standing Tall
EXTD=
EXTT0=
EXTT1=
EXTT2=
EXTT3=
EXTT4=
EXTT5=
EXTT6=
EXTT7=
EXTT8=
EXTT9=
EXTT10=
EXTT11=
EXTT12=
EXTT13=
EXTT14=
EXTT15=
PLAYORDER=
